<?xml version="1.0" encoding="UTF-8"?>
<svg width="184" height="100" viewBox="0 5 173.7 10" xmlns="http://www.w3.org/2000/svg">
<title>public digital</title>
<desc>The public digital logo</desc>
<g>
<path d="m11.1 8.1c-1-0.6-2.2-0.9-3.6-0.9-1.7 0-3.3 0.5-4.6 1.7v-1.4h-2.9v22.2h3v-8.8c1.2 1 2.7 1.6 4.4 1.6 1.3 0 2.7-0.4 3.7-1 2.2-1.3 3.8-3.8 3.8-6.7-0.1-2.9-1.6-5.4-3.8-6.7zm-4.1 11.6c-1.5 0-3-0.8-4-2.1v-5.5c0.9-1.2 2.4-2.1 4.2-2.1 2.8 0 4.7 2.3 4.7 4.8 0 2.7-2.1 4.9-4.9 4.9z" fill="currentColor"/>
<circle cx="85.2" cy="14.7" r="2.2" fill="currentColor"/>
<path d="m102.2 17.6c-1 1.3-2.5 2.1-4 2.1-2.8 0-4.9-2.2-4.9-4.8s1.9-4.8 4.7-4.8c1.8 0 3.3 0.9 4.2 2.1v5.4zm0.1 4.6h2.9v-22.2h-3v8.8c-1.3-1.1-2.9-1.6-4.5-1.6-1.4 0-2.6 0.3-3.6 0.9-2.2 1.3-3.8 3.8-3.8 6.7s1.5 5.4 3.8 6.7c1 0.6 2.4 1 3.7 1 1.8 0 3.3-0.6 4.5-1.7v1.4z" fill="currentColor"/>
<g>
<g style="transform-origin:24.65px 15px;transform:none" transform-origin="24.649998664855957px 15px">
<path d="m24.3 22.5c2 0 3.7-1 4.3-1.7v1.3h2.9v-14.6h-3v10.1c-0.8 1-2.3 2.1-4.1 2.1-1.1 0-2.2-0.5-2.8-1.3-0.5-0.6-0.8-1.4-0.8-2.9v-8h-3v7.5c0 2.5 0.4 3.9 1.3 5 1.2 1.6 3.1 2.5 5.2 2.5z" fill="currentColor"/>
</g>
<g style="transform-origin:42.85px 11.3px;transform:none" transform-origin="42.85000228881836px 11.30000114440918px">
<path d="m46.5 8.1c-1-0.6-2.2-0.9-3.6-0.9-1.6 0-3.2 0.5-4.5 1.6v-8.8h-3v22.2h2.9v-1.3c1.2 1.1 2.8 1.7 4.5 1.7 1.3 0 2.7-0.4 3.7-1 2.2-1.3 3.8-3.8 3.8-6.7 0-3-1.6-5.5-3.8-6.8zm-4.1 11.6c-1.5 0-3-0.8-4-2.1v-5.5c0.9-1.2 2.4-2.1 4.2-2.1 2.8 0 4.7 2.3 4.7 4.8 0 2.7-2 4.9-4.9 4.9z" fill="currentColor"/>
</g>
<g style="transform-origin:54.8px 11.1px;transform:none" transform-origin="54.79999923706055px 11.100000381469727px">
<rect x="53.3" width="3" height="22.2" fill="currentColor"/>
</g>
<g style="transform-origin:61.75px 11.25px;transform:none" transform-origin="61.75px 11.250000476837158px">
<g fill="currentColor">
<path d="m59.8 2.3c0 1.1 0.8 1.9 1.9 1.9s2-0.8 2-1.9-0.9-2-2-2-1.9 0.9-1.9 2z"/>
<rect x="60.3" y="7.5" width="3" height="14.7"/>
</g>
</g>
<g style="transform-origin:73.55px 15px;transform:none" transform-origin="73.54999542236328px 14.999997615814209px">
<path d="m78.5 17.4c-0.9 1.2-2.3 2.3-4.2 2.3-2.8 0-4.9-2-4.9-4.8s2-4.8 4.7-4.8c1.9 0 3.3 1.1 4.1 2.2l2.2-1.8c-1.4-1.9-3.7-3.2-6.3-3.2-4.4 0-7.7 3.3-7.7 7.7 0 4.3 3.3 7.7 7.8 7.7 2.7 0 5.3-1.4 6.5-3.4l-2.2-1.9z" fill="currentColor"/>
</g>
</g>
<g>
<g style="transform-origin:110.65px 11.25px;transform:none" transform-origin="110.64999771118164px 11.250000476837158px">
<g fill="currentColor">
<path d="m108.7 2.3c0 1.1 0.8 1.9 1.9 1.9s2-0.8 2-1.9-0.9-2-2-2-1.9 0.9-1.9 2z"/>
<rect x="109.2" y="7.5" width="3" height="14.7"/>
</g>
</g>
<g style="transform-origin:122.75px 18.5px;transform:none" transform-origin="122.75px 18.499999046325684px">
<path d="m127.3 7.5v1.3c-1.3-1.2-2.9-1.7-4.6-1.7-1.4 0-2.6 0.3-3.6 0.9-2.2 1.3-3.8 3.8-3.8 6.7s1.5 5.4 3.8 6.7c1 0.6 2.4 1 3.7 1 1.7 0 3.2-0.6 4.4-1.6v0.8c0 1.8-0.3 3-0.8 3.8-0.7 1.1-2 1.7-3.6 1.7-2.4 0-3.8-1.2-4.8-2.6l-2.2 2c0.9 1.5 3.3 3.4 7.2 3.4 2.9 0 5.2-1.3 6.3-3.6 0.6-1.2 0.9-2.6 0.9-4.8v-14h-2.9zm-0.1 10.1c-1 1.3-2.5 2.1-4 2.1-2.8 0-4.9-2.2-4.9-4.8s1.9-4.8 4.7-4.8c1.8 0 3.3 0.9 4.2 2.1v5.4z" fill="currentColor"/>
</g>
<g style="transform-origin:135.45px 11.25px;transform:none" transform-origin="135.4499969482422px 11.250000476837158px">
<g fill="currentColor">
<path d="m133.5 2.3c0 1.1 0.8 1.9 1.9 1.9s2-0.8 2-1.9-0.9-2-2-2-1.9 0.9-1.9 2z"/>
<rect x="133.9" y="7.5" width="3" height="14.7"/>
</g>
</g>
<g style="transform-origin:144.95px 12.95px;transform:none" transform-origin="144.9499969482422px 12.950000286102295px">
<path d="m150 19.5c-0.4 0.1-1.2 0.2-1.6 0.2-0.8 0-1.6-0.3-2-0.8-0.4-0.4-0.4-1.1-0.4-1.9v-6.9h4.7v-2.6h-4.7v-4.1h-3v4.1h-3.8v2.7h3.8v6.7c0 1.6 0.3 2.9 1.2 3.9 0.9 1.1 2.3 1.7 4.2 1.7 0.8 0 1.8-0.1 2.3-0.3l-0.7-2.7z" fill="currentColor"/>
</g>
<g style="transform-origin:159.55px 14.75px;transform:none" transform-origin="159.54998779296875px 14.75px">
<path d="m164.1 7.5v1.3c-1.3-1.2-2.9-1.7-4.6-1.7-1.4 0-2.6 0.3-3.6 0.9-2.2 1.3-3.8 3.8-3.8 6.7s1.5 5.4 3.8 6.7c1 0.6 2.4 1 3.7 1 1.8 0 3.3-0.6 4.5-1.7v1.3h2.9v-14.5h-2.9zm-0.1 10.1c-1 1.3-2.5 2.1-4 2.1-2.8 0-4.9-2.2-4.9-4.8s1.9-4.8 4.7-4.8c1.8 0 3.3 0.9 4.2 2.1v5.4z" fill="currentColor"/>
</g>
<g style="transform-origin:172.2px 11.1px;transform:none" transform-origin="172.1999969482422px 11.100000381469727px">
<rect x="170.7" width="3" height="22.2" fill="currentColor"/>
</g>
</g>
</g>
</svg>
