<svg xmlns="http://www.w3.org/2000/svg" xmlns:xlink="http://www.w3.org/1999/xlink" width="500" zoomAndPan="magnify" viewBox="0 0 375 374.999991" height="500" preserveAspectRatio="xMidYMid meet" version="1.0"><defs><clipPath id="1fce8e0e0a"><path d="M 2.25 4.667969 L 367.917969 4.667969 L 367.917969 370.332031 L 2.25 370.332031 Z M 2.25 4.667969 " clip-rule="nonzero"/></clipPath><clipPath id="2c89cc99f0"><path d="M 185.082031 4.667969 C 84.109375 4.667969 2.25 86.523438 2.25 187.5 C 2.25 288.476562 84.109375 370.332031 185.082031 370.332031 C 286.058594 370.332031 367.917969 288.476562 367.917969 187.5 C 367.917969 86.523438 286.058594 4.667969 185.082031 4.667969 " clip-rule="nonzero"/></clipPath><clipPath id="45bfc2b66d"><path d="M 63.429688 92 L 322.929688 92 L 322.929688 302.632812 L 63.429688 302.632812 Z M 63.429688 92 " clip-rule="nonzero"/></clipPath></defs><g clip-path="url(#1fce8e0e0a)"><g clip-path="url(#2c89cc99f0)"><path fill="#ec6575" d="M 2.25 4.667969 L 367.917969 4.667969 L 367.917969 370.332031 L 2.25 370.332031 Z M 2.25 4.667969 " fill-opacity="1" fill-rule="nonzero"/></g></g><g clip-path="url(#45bfc2b66d)"><path fill="#ffffff" d="M 296.257812 144.679688 C 296.414062 146.960938 296.414062 149.242188 296.414062 151.542969 C 296.414062 221.703125 242.914062 302.617188 145.085938 302.617188 L 145.085938 302.578125 C 116.1875 302.621094 87.890625 294.363281 63.5625 278.777344 C 67.761719 279.277344 71.988281 279.53125 76.222656 279.542969 C 100.171875 279.5625 123.4375 271.539062 142.277344 256.769531 C 119.515625 256.339844 99.5625 241.523438 92.585938 219.894531 C 100.5625 221.429688 108.773438 221.113281 116.597656 218.976562 C 91.785156 213.972656 73.933594 192.207031 73.933594 166.929688 C 73.933594 166.699219 73.933594 166.480469 73.933594 166.257812 C 81.328125 170.367188 89.605469 172.648438 98.074219 172.902344 C 74.707031 157.320312 67.503906 126.28125 81.617188 102.011719 C 108.617188 135.183594 148.457031 155.351562 191.226562 157.484375 C 186.9375 139.042969 192.796875 119.71875 206.613281 106.753906 C 228.039062 86.648438 261.726562 87.679688 281.863281 109.054688 C 293.773438 106.710938 305.191406 102.347656 315.636719 96.167969 C 311.667969 108.460938 303.359375 118.902344 292.261719 125.53125 C 302.800781 124.289062 313.101562 121.472656 322.804688 117.171875 C 315.660156 127.855469 306.664062 137.164062 296.257812 144.679688 Z M 296.257812 144.679688 " fill-opacity="1" fill-rule="nonzero"/></g></svg>